<svg width="44" height="44" viewBox="0 0 44 44" fill="none" xmlns="http://www.w3.org/2000/svg">
<path d="M21.5064 0C24.3583 0 27.0935 1.13292 29.1101 3.14954C31.1267 5.16616 32.2596 7.90128 32.2596 10.7532C32.2596 13.6051 31.1267 16.3403 29.1101 18.3569C27.0935 20.3735 24.3583 21.5064 21.5064 21.5064C18.6545 21.5064 15.9194 20.3735 13.9027 18.3569C11.8861 16.3403 10.7532 13.6051 10.7532 10.7532C10.7532 7.90128 11.8861 5.16616 13.9027 3.14954C15.9194 1.13292 18.6545 0 21.5064 0ZM21.5064 26.883C33.3887 26.883 43.0128 31.6951 43.0128 37.6362V43.0128H0V37.6362C0 31.6951 9.62412 26.883 21.5064 26.883Z" fill="#A5B0F3"/>
</svg>
